<?xml version="1.0" encoding="utf-8"?>
<!-- Generator: Adobe Illustrator 27.5.0, SVG Export Plug-In . SVG Version: 6.00 Build 0)  -->
<svg version="1.1" id="Capa_1" xmlns="http://www.w3.org/2000/svg" xmlns:xlink="http://www.w3.org/1999/xlink" x="0px" y="0px"
	 viewBox="0 0 425.2 425.2" style="enable-background:new 0 0 425.2 425.2;" xml:space="preserve">
<g>
	<g>
		<path style="fill:#D19426;" d="M215.549,305.978c0,0-4.494,0.317-12.337-0.182c-7.819-0.52-19.044-1.845-31.989-5.687
			c-6.46-1.925-13.332-4.497-20.264-7.946c-6.93-3.443-13.894-7.808-20.451-13.154c-6.557-5.342-12.674-11.69-17.944-18.853
			c-5.268-7.162-9.752-15.087-13.192-23.442c-0.871-2.083-1.605-4.222-2.416-6.326l-0.593-1.586
			c-0.222-0.593-0.339-1.087-0.515-1.635l-0.968-3.208c-0.353-1.05-0.565-2.182-0.833-3.28c-0.257-1.104-0.512-2.209-0.77-3.311
			c-0.186-1.108-0.375-2.216-0.559-3.32c-0.166-1.106-0.416-2.202-0.503-3.314c-1.114-8.863-0.981-17.698-0.072-26.129
			c0.968-8.43,2.681-16.47,4.874-23.904c2.179-7.445,4.718-14.323,7.324-20.55c2.602-6.233,5.359-11.777,7.898-16.628
			c2.55-4.851,4.955-8.978,7.031-12.315c4.119-6.693,6.844-10.271,6.844-10.271l0.201,0.143c0,0-0.621,0.93-1.717,2.72
			c-1.09,1.792-2.684,4.425-4.584,7.848c-1.891,3.426-4.129,7.621-6.516,12.514c-2.391,4.893-4.869,10.514-7.346,16.729
			c-2.469,6.218-4.85,13.07-6.857,20.451c-0.531,1.841-0.937,3.733-1.434,5.631c-0.463,1.906-0.854,3.851-1.293,5.808
			c-0.355,1.973-0.738,3.963-1.066,5.981c-0.143,1.012-0.285,2.028-0.429,3.048c-0.147,1.024-0.298,2.049-0.382,3.085
			c-0.951,8.26-1.129,16.895-0.174,25.563c0.07,1.088,0.301,2.158,0.447,3.243c0.168,1.078,0.336,2.161,0.504,3.245
			c0.232,1.063,0.465,2.131,0.698,3.198c0.247,1.067,0.425,2.138,0.769,3.21l0.928,3.221c0.156,0.519,0.303,1.116,0.471,1.569
			l0.564,1.566c0.769,2.081,1.463,4.196,2.295,6.257c3.299,8.257,7.627,16.093,12.738,23.191
			c5.113,7.101,11.07,13.413,17.484,18.749c6.404,5.348,13.256,9.71,20.066,13.22c6.814,3.513,13.598,6.158,19.988,8.159
			c12.811,3.995,23.98,5.472,31.77,6.096c3.903,0.306,6.982,0.389,9.078,0.399c2.098,0.011,3.213-0.049,3.213-0.049L215.549,305.978
			z"/>
		<path style="fill:#D19426;" d="M208.971,305.625c0,0,1.115,0.058,3.215,0.048c2.096-0.012,5.174-0.094,9.078-0.399
			c7.789-0.625,18.959-2.103,31.769-6.096c6.39-2.001,13.175-4.647,19.987-8.158c6.81-3.51,13.662-7.872,20.07-13.222
			c6.412-5.334,12.368-11.648,17.486-18.748c5.107-7.099,9.436-14.935,12.734-23.192c0.831-2.059,1.527-4.175,2.293-6.256
			l0.565-1.565c0.171-0.455,0.313-1.052,0.47-1.571l0.93-3.222c0.343-1.071,0.523-2.142,0.769-3.209
			c0.233-1.066,0.464-2.133,0.696-3.196c0.168-1.084,0.338-2.167,0.504-3.248c0.148-1.083,0.378-2.152,0.447-3.242
			c0.959-8.667,0.782-17.303-0.172-25.561c-0.083-1.038-0.237-2.064-0.381-3.084c-0.143-1.02-0.288-2.038-0.43-3.05
			c-0.326-2.02-0.712-4.009-1.064-5.982c-0.44-1.958-0.83-3.901-1.295-5.808c-0.496-1.896-0.904-3.792-1.432-5.631
			c-2.008-7.382-4.393-14.233-6.857-20.452c-2.475-6.214-4.957-11.836-7.347-16.729c-2.39-4.894-4.626-9.087-6.519-12.513
			c-1.896-3.424-3.492-6.057-4.582-7.85c-1.097-1.789-1.715-2.72-1.715-2.72l0.2-0.143c0,0.002,2.724,3.579,6.847,10.272
			c2.072,3.337,4.477,7.465,7.027,12.315c2.539,4.852,5.297,10.395,7.898,16.628c2.607,6.227,5.145,13.105,7.323,20.548
			c2.194,7.438,3.908,15.476,4.874,23.906c0.91,8.431,1.045,17.267-0.072,26.127c-0.088,1.114-0.336,2.209-0.502,3.317
			c-0.188,1.105-0.374,2.212-0.562,3.319c-0.255,1.102-0.511,2.205-0.767,3.311c-0.267,1.099-0.481,2.23-0.832,3.281l-0.97,3.206
			c-0.175,0.549-0.294,1.042-0.515,1.637l-0.594,1.584c-0.809,2.107-1.545,4.243-2.414,6.326
			c-3.439,8.356-7.926,16.282-13.191,23.442c-5.271,7.163-11.389,13.512-17.947,18.852c-6.555,5.349-13.521,9.712-20.451,13.154
			c-6.928,3.452-13.803,6.023-20.261,7.948c-12.944,3.841-24.171,5.166-31.993,5.685c-7.838,0.501-12.333,0.183-12.333,0.183
			L208.971,305.625z"/>
		<path style="fill:#D19426;" d="M331.035,245.811c-5.416,2.463-11.43,1.2-11.43,1.2s2.773-5.256,8.195-7.717
			c5.418-2.463,11.434-1.201,11.434-1.201S336.457,243.347,331.035,245.811z"/>
		<path style="fill:#D19426;" d="M312.11,237.609c-2.233-5.327-0.542-10.984-0.542-10.984s5.313,2.974,7.546,8.299
			c2.235,5.326,0.544,10.986,0.544,10.986S314.346,242.936,312.11,237.609z"/>
		<path style="fill:#D19426;" d="M324.097,257.208c-5.419,2.462-11.434,1.2-11.434,1.2s2.775-5.254,8.198-7.718
			c5.421-2.462,11.433-1.2,11.433-1.2S329.518,254.745,324.097,257.208z"/>
		<path style="fill:#D19426;" d="M304.277,249.934c-1.828-5.464,0.284-10.994,0.284-10.994s5.077,3.332,6.904,8.798
			c1.828,5.464-0.284,10.993-0.284,10.993S306.107,255.4,304.277,249.934z"/>
		<path style="fill:#D19426;" d="M336.953,231.858c-5.221,2.828-11.313,1.982-11.313,1.982s2.375-5.432,7.596-8.261
			s11.313-1.984,11.313-1.984S342.176,229.028,336.953,231.858z"/>
		<path style="fill:#D19426;" d="M316.639,225.058c-2.623-5.158-1.367-10.921-1.367-10.921s5.524,2.602,8.152,7.761
			c2.629,5.158,1.367,10.92,1.367,10.92S319.267,230.218,316.639,225.058z"/>
		<path style="fill:#D19426;" d="M341.314,214.434c-5.002,3.168-11.141,2.729-11.141,2.729s1.973-5.576,6.979-8.745
			c5.006-3.168,11.142-2.725,11.142-2.725S346.32,211.266,341.314,214.434z"/>
		<path style="fill:#D19426;" d="M321.111,208.921c-2.992-4.973-2.154-10.803-2.154-10.803s5.699,2.229,8.695,7.202
			c2.996,4.97,2.156,10.803,2.156,10.803S324.11,213.893,321.111,208.921z"/>
		<path style="fill:#D19426;" d="M343.119,197.898c-4.67,3.604-10.826,3.718-10.826,3.718s1.416-5.727,6.086-9.33
			c4.672-3.605,10.826-3.721,10.826-3.721S347.787,194.296,343.119,197.898z"/>
		<path style="fill:#D19426;" d="M322.563,195.229c-3.471-4.68-3.211-10.56-3.211-10.56s5.891,1.707,9.365,6.387
			c3.473,4.682,3.211,10.561,3.211,10.561S326.032,199.91,322.563,195.229z"/>
		<path style="fill:#D19426;" d="M342.283,179.665c-4.668,3.603-10.824,3.719-10.824,3.719s1.417-5.729,6.086-9.333
			c4.67-3.604,10.824-3.719,10.824-3.719S346.953,176.059,342.283,179.665z"/>
		<path style="fill:#D19426;" d="M320.5,179.977c-4.451-3.849-5.529-9.645-5.529-9.645s6.139,0.444,10.59,4.293
			c4.453,3.846,5.531,9.643,5.531,9.643S324.953,183.825,320.5,179.977z"/>
		<path style="fill:#D19426;" d="M337.918,160.136c-3.293,4.797-9.117,6.707-9.117,6.707s-0.484-5.868,2.81-10.666
			c3.293-4.798,9.116-6.709,9.116-6.709S341.212,155.337,337.918,160.136z"/>
		<path style="fill:#D19426;" d="M316.588,164.399c-4.805-3.441-6.434-9.117-6.434-9.117s6.154-0.099,10.955,3.341
			c4.805,3.44,6.438,9.117,6.438,9.117S321.392,167.839,316.588,164.399z"/>
		<path style="fill:#D19426;" d="M331.816,140.422c-3.293,4.798-9.117,6.707-9.117,6.707s-0.484-5.867,2.813-10.666
			c3.289-4.797,9.111-6.708,9.111-6.708S335.108,135.624,331.816,140.422z"/>
		<path style="fill:#D19426;" d="M310.486,144.686c-4.805-3.439-6.436-9.116-6.436-9.116s6.154-0.1,10.957,3.341
			c4.807,3.439,6.438,9.115,6.438,9.115S315.289,148.125,310.486,144.686z"/>
		<path style="fill:#D19426;" d="M322.408,122.741c-2.433,4.561-7.406,6.797-7.406,6.797s-1.026-5.161,1.408-9.724
			c2.436-4.562,7.406-6.797,7.406-6.797S324.842,118.178,322.408,122.741z"/>
		<path style="fill:#D19426;" d="M303.918,128.504c-4.611-2.606-6.635-7.491-6.635-7.491s5.449-0.658,10.063,1.946
			c4.607,2.607,6.635,7.492,6.635,7.492S308.529,131.109,303.918,128.504z"/>
		<path style="fill:#D19426;" d="M313.441,108.977c-2.023,3.788-6.152,5.646-6.152,5.646s-0.852-4.287,1.172-8.076
			c2.02-3.787,6.148-5.645,6.148-5.645S315.463,105.188,313.441,108.977z"/>
		<path style="fill:#D19426;" d="M298.082,113.763c-3.829-2.166-5.512-6.222-5.512-6.222s4.528-0.548,8.361,1.616
			c3.827,2.165,5.512,6.222,5.512,6.222S301.911,115.926,298.082,113.763z"/>
		<path style="fill:#D19426;" d="M93.467,245.919c5.424,2.461,11.434,1.199,11.434,1.199s-2.772-5.256-8.196-7.718
			c-5.421-2.463-11.431-1.2-11.431-1.2S88.047,243.454,93.467,245.919z"/>
		<path style="fill:#D19426;" d="M112.395,237.719c2.235-5.325,0.543-10.988,0.543-10.988s-5.311,2.975-7.545,8.302
			c-2.234,5.325-0.545,10.986-0.545,10.986S110.16,243.042,112.395,237.719z"/>
		<path style="fill:#D19426;" d="M100.408,257.316c5.418,2.461,11.432,1.2,11.432,1.2s-2.771-5.256-8.193-7.719
			c-5.419-2.461-11.435-1.201-11.435-1.201S94.986,254.854,100.408,257.316z"/>
		<path style="fill:#D19426;" d="M120.229,250.043c1.826-5.466-0.285-10.995-0.285-10.995s-5.074,3.33-6.906,8.797
			c-1.826,5.466,0.283,10.994,0.283,10.994S118.396,255.507,120.229,250.043z"/>
		<path style="fill:#D19426;" d="M108.959,269.026c5.76,1.619,11.489-0.532,11.489-0.532s-3.604-4.772-9.363-6.39
			c-5.759-1.615-11.489,0.534-11.489,0.534S103.199,267.41,108.959,269.026z"/>
		<path style="fill:#D19426;" d="M127.334,258.867c0.91-5.675-2.086-10.817-2.086-10.817s-4.465,4.052-5.373,9.725
			c-0.904,5.672,2.088,10.815,2.088,10.815S126.43,264.538,127.334,258.867z"/>
		<path style="fill:#D19426;" d="M117.911,279.938c5.935,0.872,11.315-1.988,11.315-1.988s-4.238-4.271-10.172-5.142
			c-5.928-0.871-11.312,1.99-11.312,1.99S111.98,279.069,117.911,279.938z"/>
		<path style="fill:#D19426;" d="M134.711,267.53c0.109-5.737-3.572-10.455-3.572-10.455s-3.861,4.584-3.971,10.323
			c-0.11,5.736,3.572,10.454,3.572,10.454S134.602,273.267,134.711,267.53z"/>
		<path style="fill:#D19426;" d="M129.183,289.813c5.991,0.337,11.067-2.995,11.067-2.995s-4.637-3.871-10.627-4.207
			c-5.99-0.335-11.068,2.994-11.068,2.994S123.191,289.479,129.183,289.813z"/>
		<path style="fill:#D19426;" d="M144.693,275.955c-0.453-5.722-4.582-10.088-4.582-10.088s-3.395,4.909-2.943,10.634
			c0.455,5.72,4.584,10.087,4.584,10.087S145.146,281.677,144.693,275.955z"/>
		<path style="fill:#D19426;" d="M141.584,297.712c5.986-0.386,10.586-4.298,10.586-4.298s-5.107-3.287-11.096-2.899
			c-5.984,0.386-10.584,4.297-10.584,4.297S135.596,298.099,141.584,297.712z"/>
		<path style="fill:#D19426;" d="M155.152,282.1c-1.199-5.62-5.867-9.457-5.867-9.457s-2.727,5.278-1.527,10.901
			c1.201,5.622,5.871,9.46,5.871,9.46S156.354,287.725,155.152,282.1z"/>
		<path style="fill:#D19426;" d="M154.96,304.459c5.901-1.05,9.992-5.446,9.992-5.446s-5.471-2.696-11.372-1.646
			c-5.897,1.048-9.992,5.445-9.992,5.445S149.061,305.509,154.96,304.459z"/>
		<path style="fill:#D19426;" d="M166.537,287.444c-1.875-5.449-6.979-8.739-6.979-8.739s-2.064,5.545-0.189,10.996
			c1.879,5.449,6.98,8.743,6.98,8.743S168.412,292.896,166.537,287.444z"/>
		<path style="fill:#D19426;" d="M171.092,309.781c5.682-1.848,9.07-6.764,9.07-6.764s-5.82-1.917-11.502-0.067
			c-5.682,1.85-9.068,6.763-9.068,6.763S165.41,311.629,171.092,309.781z"/>
		<path style="fill:#D19426;" d="M179.992,291.354c-2.674-5.137-8.221-7.692-8.221-7.692s-1.209,5.771,1.465,10.908
			c2.678,5.135,8.223,7.691,8.223,7.691S182.668,296.49,179.992,291.354z"/>
		<path style="fill:#D19426;" d="M315.785,269.814c-5.759,1.618-11.49-0.533-11.49-0.533s3.605-4.772,9.363-6.391
			c5.76-1.614,11.491,0.535,11.491,0.535S321.545,268.197,315.785,269.814z"/>
		<path style="fill:#D19426;" d="M297.408,259.65c-0.906-5.67,2.088-10.814,2.088-10.814s4.465,4.054,5.375,9.725
			c0.904,5.675-2.09,10.817-2.09,10.817S298.316,265.323,297.408,259.65z"/>
		<path style="fill:#D19426;" d="M306.832,280.727c-5.932,0.871-11.313-1.989-11.313-1.989s4.236-4.272,10.17-5.143
			c5.928-0.87,11.311,1.99,11.311,1.99S312.766,279.855,306.832,280.727z"/>
		<path style="fill:#D19426;" d="M290.032,268.317c-0.11-5.739,3.573-10.453,3.573-10.453s3.863,4.583,3.974,10.321
			c0.108,5.737-3.575,10.453-3.575,10.453S290.142,274.054,290.032,268.317z"/>
		<path style="fill:#D19426;" d="M295.563,290.602c-5.994,0.334-11.068-2.995-11.068-2.995s4.635-3.872,10.629-4.208
			c5.988-0.335,11.066,2.996,11.066,2.996S301.555,290.266,295.563,290.602z"/>
		<path style="fill:#D19426;" d="M280.053,276.741c0.451-5.724,4.581-10.088,4.581-10.088s3.396,4.911,2.944,10.634
			c-0.457,5.72-4.583,10.087-4.583,10.087S279.598,282.464,280.053,276.741z"/>
		<path style="fill:#D19426;" d="M283.16,298.498c-5.988-0.386-10.586-4.298-10.586-4.298s5.105-3.286,11.096-2.9
			c5.986,0.384,10.584,4.298,10.584,4.298S289.148,298.886,283.16,298.498z"/>
		<path style="fill:#D19426;" d="M269.594,282.89c1.199-5.624,5.868-9.459,5.868-9.459s2.722,5.278,1.524,10.901
			c-1.201,5.622-5.869,9.459-5.869,9.459S268.392,288.512,269.594,282.89z"/>
		<path style="fill:#D19426;" d="M269.783,305.246c-5.9-1.049-9.992-5.448-9.992-5.448s5.473-2.693,11.373-1.645
			c5.896,1.049,9.992,5.448,9.992,5.448S275.684,306.294,269.783,305.246z"/>
		<path style="fill:#D19426;" d="M258.209,288.231c1.874-5.451,6.977-8.74,6.977-8.74s2.068,5.545,0.19,10.997
			c-1.877,5.449-6.98,8.741-6.98,8.741S256.33,293.683,258.209,288.231z"/>
		<path style="fill:#D19426;" d="M253.654,310.566c-5.682-1.848-9.07-6.762-9.07-6.762s5.82-1.916,11.502-0.067
			c5.679,1.849,9.068,6.763,9.068,6.763S259.334,312.417,253.654,310.566z"/>
		<path style="fill:#D19426;" d="M244.753,292.141c2.673-5.138,8.22-7.692,8.22-7.692s1.207,5.77-1.465,10.909
			c-2.678,5.134-8.223,7.691-8.223,7.691S242.077,297.276,244.753,292.141z"/>
		<path style="fill:#D19426;" d="M87.553,231.965c5.219,2.827,11.314,1.983,11.314,1.983s-2.373-5.433-7.597-8.262
			c-5.219-2.827-11.313-1.982-11.313-1.982S82.33,229.135,87.553,231.965z"/>
		<path style="fill:#D19426;" d="M107.865,225.165c2.629-5.158,1.366-10.921,1.366-10.921s-5.522,2.603-8.149,7.762
			c-2.63,5.159-1.367,10.92-1.367,10.92S105.236,230.324,107.865,225.165z"/>
		<path style="fill:#D19426;" d="M83.189,214.542c5.004,3.169,11.143,2.728,11.143,2.728s-1.973-5.576-6.977-8.743
			c-5.004-3.168-11.146-2.73-11.146-2.73S78.186,211.374,83.189,214.542z"/>
		<path style="fill:#D19426;" d="M103.394,209.027c2.995-4.973,2.155-10.803,2.155-10.803s-5.699,2.231-8.693,7.202
			c-2.999,4.973-2.158,10.804-2.158,10.804S100.396,214.002,103.394,209.027z"/>
		<path style="fill:#D19426;" d="M81.387,198.008c4.672,3.605,10.825,3.718,10.825,3.718s-1.417-5.729-6.085-9.333
			c-4.67-3.604-10.826-3.719-10.826-3.719S76.715,194.402,81.387,198.008z"/>
		<path style="fill:#D19426;" d="M101.943,195.339c3.471-4.682,3.209-10.562,3.209-10.562s-5.894,1.708-9.365,6.388
			c-3.471,4.679-3.208,10.561-3.208,10.561S98.471,200.02,101.943,195.339z"/>
		<path style="fill:#D19426;" d="M82.221,179.773c4.67,3.604,10.827,3.718,10.827,3.718s-1.417-5.729-6.089-9.333
			c-4.67-3.604-10.824-3.718-10.824-3.718S77.549,176.169,82.221,179.773z"/>
		<path style="fill:#D19426;" d="M104.006,180.084c4.449-3.85,5.527-9.643,5.527-9.643s-6.138,0.443-10.59,4.291
			c-4.45,3.848-5.531,9.644-5.531,9.644S99.555,183.933,104.006,180.084z"/>
		<path style="fill:#D19426;" d="M86.588,160.243c3.292,4.797,9.115,6.708,9.115,6.708s0.486-5.868-2.807-10.668
			c-3.291-4.797-9.115-6.707-9.115-6.707S83.297,155.445,86.588,160.243z"/>
		<path style="fill:#D19426;" d="M107.92,164.508c4.803-3.439,6.436-9.117,6.436-9.117s-6.156-0.1-10.96,3.341
			c-4.802,3.439-6.44,9.116-6.44,9.116S103.115,167.945,107.92,164.508z"/>
		<path style="fill:#D19426;" d="M92.691,140.528c3.291,4.797,9.113,6.709,9.113,6.709s0.486-5.869-2.807-10.667
			c-3.293-4.797-9.114-6.707-9.114-6.707S89.398,135.73,92.691,140.528z"/>
		<path style="fill:#D19426;" d="M114.02,144.793c4.804-3.438,6.434-9.116,6.434-9.116s-6.152-0.098-10.959,3.341
			c-4.802,3.441-6.434,9.117-6.434,9.117S109.216,148.232,114.02,144.793z"/>
		<path style="fill:#D19426;" d="M102.094,122.85c2.436,4.561,7.41,6.797,7.41,6.797s1.025-5.16-1.408-9.725
			c-2.436-4.561-7.406-6.797-7.406-6.797S99.663,118.288,102.094,122.85z"/>
		<path style="fill:#D19426;" d="M120.59,128.612c4.609-2.607,6.633-7.49,6.633-7.49s-5.449-0.66-10.063,1.946
			c-4.611,2.605-6.634,7.49-6.634,7.49S115.977,131.218,120.59,128.612z"/>
		<path style="fill:#D19426;" d="M111.064,109.084c2.021,3.787,6.15,5.646,6.15,5.646s0.854-4.287-1.167-8.077
			c-2.023-3.787-6.149-5.645-6.149-5.645S109.043,105.294,111.064,109.084z"/>
		<path style="fill:#D19426;" d="M126.422,113.871c3.83-2.165,5.512-6.223,5.512-6.223s-4.529-0.549-8.356,1.617
			c-3.831,2.164-5.515,6.221-5.515,6.221S122.592,116.034,126.422,113.871z"/>
	</g>
	<g>
		<path style="fill:#3C2415;" d="M153.116,50.639l2.821,12.13c2.76,11.814,2.989,17.703-5.1,21.518
			c-5.177,2.441-7.903,1.225-9.585-2.34c-1.648-3.494-2.541-9.113-3.845-15.79l-1.011-5.218c-3.436,2.872-4.532,6.883-2.534,11.118
			c0.882,1.871,1.466,1.897,1.652,2.198c-2.373,1.119-4.264,0.931-5.379-1.433c-2.347-4.976,2.203-12.472,9.178-15.761
			c0.611-0.288,0.987-0.422,1.809-0.637c2.4,13.753,3.138,19.229,4.536,22.194c0.949,2.012,2.182,2.854,3.979,2.007
			c3.056-1.441,4.036-2.81,1.146-15.554l-2.735-12.042L153.116,50.639z"/>
		<path style="fill:#3C2415;" d="M168.486,60.423c-1.381,0.372-1.991,2.233-2.06,4.272l0.648,12.795l-5.525,1.488l-1.006-19.932
			l5.526-1.487l0.105,2.073c1.124-2.242,2.731-2.999,3.922-3.318c2.456-0.661,4.594,0.096,5.406,3.11
			c0.821,3.052,0.207,8.106,0.775,10.216c0.254,0.942,0.811,1.479,1.961,1.169c1.689-0.455,2.015-1.997,2.331-4.183l1.611-0.434
			c-0.484,6.757-3.227,8.343-5.26,8.891c-3.339,0.898-5.097-0.891-5.676-3.039c-0.689-2.562-0.211-7.661-0.86-10.072
			C170.051,60.729,169.408,60.175,168.486,60.423z"/>
		<path style="fill:#3C2415;" d="M186.97,53.132l-0.677,13.553c-0.035,0.52-0.012,0.911,0.045,1.258
			c0.178,1.078,0.744,1.34,1.843,1.16c1.529-0.251,2.702-1.946,2.975-3.967l1.648-0.271c-1.206,6.642-4.951,8.127-7.069,8.474
			c-2.354,0.387-4.425-0.697-4.956-3.931c-0.12-0.731-0.142-1.598-0.097-2.554l0.64-12.796L186.97,53.132z M183.858,45.222
			c1.727-0.283,3.366,0.871,3.645,2.565c0.277,1.694-0.913,3.273-2.64,3.556c-1.727,0.284-3.32-0.838-3.599-2.533
			C180.987,47.116,182.133,45.505,183.858,45.222z"/>
		<path style="fill:#3C2415;" d="M206.127,53.839c0.518,6.221-1.788,17.335-9.869,18.007c-3.011,0.251-4.998-1.111-5.254-4.182
			c-0.035-0.428-0.055-1.131,0.043-1.883l1.752-13.456l5.704-0.475l-1.752,13.457c-0.074,0.554-0.111,1.066-0.082,1.416
			c0.064,0.778,0.503,1.25,1.454,1.171c3.882-0.323,6.128-9.279,5.772-13.556c-0.097,0.282-0.919,0.468-1.235,0.494
			c-0.951,0.079-1.52-1.009-1.592-1.864c-0.1-1.205,0.618-2.166,2.281-2.304C205.252,50.506,205.984,52.128,206.127,53.839z"/>
		<path style="fill:#3C2415;" d="M215.787,67.648c3.141,0.005,5.051-1.709,7.042-3.93l1.352,0.002
			c-2.271,3.586-5.655,7.209-10.942,7.201c-3.736-0.005-6.198-1.804-6.191-6.213c0.008-4.487,2.605-13.886,10.755-13.874
			c3.537,0.005,4.369,1.801,4.366,3.752c-0.007,4.487-4.385,7.953-9.155,8.218c-0.041,0.546-0.081,1.092-0.082,1.561
			C212.927,67.02,213.88,67.645,215.787,67.648z M218.116,52.903c-2.027-0.003-3.981,4.168-4.782,8.03
			c3.061-0.191,5.769-3.191,5.774-6.429C219.108,53.529,218.871,52.904,218.116,52.903z"/>
		<path style="fill:#3C2415;" d="M232.385,51.986l-0.73,2.364c1.49-1.042,3.106-2.151,5.007-1.982
			c1.782,0.159,2.604,1.682,2.472,3.159c-0.122,1.36-1.165,2.755-3.105,2.582c-2.217-0.198-0.879-2.664-2.066-2.77
			c-1.189-0.106-1.953,0.413-3.023,1.218l-4.489,14.485l-5.702-0.51l5.937-19.057L232.385,51.986z"/>
		<path style="fill:#3C2415;" d="M254.34,68.178c-2.468,1.914-4.893,2.961-6.886,3.654c-1.961,1.374-4.576,1.512-6.568,1.133
			c-3.982-0.758-5.212-3.653-4.767-5.991c0.335-1.763,1.599-2.873,2.747-3.171c2.909-3.378,5.037-6.906,6.962-10.432l5.925,0.333
			c-1.42,10.017-1.314,11.586-1.796,14.116c-0.102,0.537-0.229,0.989-0.433,1.427c1.171-0.413,2.317-0.909,3.176-1.381
			L254.34,68.178z M239.301,67.262c-0.391-0.075-0.837-0.279-0.959-0.699c-0.343,1.802,0.153,2.81,1.871,3.136
			c1.718,0.327,3.564-0.235,4.075-2.918c0.38-1.993,0.254-3.248,0.987-9.226c-1.256,2.343-2.786,4.435-4.542,6.643
			c0.464,0.327,0.767,0.861,0.643,1.513C241.201,66.631,240.316,67.455,239.301,67.262z"/>
		<path style="fill:#3C2415;" d="M264.26,58.268l-6.434,11.953c-0.255,0.454-0.401,0.818-0.499,1.156
			c-0.304,1.05,0.096,1.53,1.165,1.839c1.489,0.43,3.276-0.597,4.391-2.306l1.604,0.463c-3.943,5.482-7.963,5.215-10.025,4.619
			c-2.291-0.662-3.696-2.53-2.786-5.679c0.206-0.712,0.559-1.504,1.01-2.349l6.074-11.284L264.26,58.268z M264.849,49.786
			c1.681,0.485,2.665,2.232,2.189,3.882c-0.477,1.649-2.23,2.564-3.911,2.079c-1.681-0.485-2.638-2.184-2.161-3.833
			C261.441,50.264,263.168,49.3,264.849,49.786z"/>
		<path style="fill:#3C2415;" d="M278.701,56.925l-3.455,5.282l2.229,0.848l-0.852,1.346l-2.229-0.848l-6.539,10.036
			c-0.292,0.432-0.468,0.782-0.593,1.111c-0.388,1.021-0.03,1.533,1.011,1.928c1.449,0.551,3.314-0.326,4.564-1.938l1.561,0.594
			c-4.379,5.139-8.362,4.542-10.369,3.779c-2.229-0.848-3.475-2.825-2.311-5.888c0.264-0.693,0.68-1.453,1.198-2.257l6.127-9.4
			l-1.226-0.466l0.852-1.346l1.227,0.466l3.028-4.609L278.701,56.925z"/>
		<path style="fill:#3C2415;" d="M286.228,67.288l-8.675,10.438c-0.215,0.24-0.412,0.533-0.557,0.81
			c-0.415,0.795-0.548,1.651,0.263,2.074c1.374,0.717,2.977-0.12,4.407-1.573l8.19-9.854l5.108,2.666l-14.768,17.82
			c-3.639,4.395-7.156,3.748-9.482,2.534c-2.149-1.122-3.381-3.657-2.208-5.905c1.679-3.217,4.95-2.786,8.803-2.008l1.147-1.338
			c-2.4,0.904-4.148,0.388-5.345-0.237c-2.114-1.103-3.12-3.213-1.603-6.118c0.343-0.657,0.846-1.363,1.455-2.102l8.189-9.854
			L286.228,67.288z M271.513,88.701c0.705,0.368,1.964,0.188,3.487-1.613l1.487-1.82c-2.599-0.432-4.814-0.312-5.788,1.557
			C270.446,87.308,270.738,88.296,271.513,88.701z"/>
	</g>
	<g>
		<g>
			<path style="fill:#3C2415;" d="M158.322,326.975l-7.096-2.98l1.036-2.468c0.653-1.556,0.995-2.558,1.024-3.006
				c0.03-0.448-0.208-0.779-0.714-0.991c-0.438-0.184-0.806-0.141-1.104,0.128c-0.299,0.27-0.739,1.099-1.321,2.486l-5.479,13.044
				c-0.513,1.22-0.771,2.056-0.775,2.508c-0.005,0.452,0.229,0.777,0.7,0.976c0.517,0.217,0.96,0.147,1.328-0.212
				c0.369-0.358,0.818-1.17,1.35-2.435l1.355-3.224l-1.433-0.602l1.734-4.129l8.309,3.489l-6.127,14.588l-4.459-1.873l0.162-2.223
				c-0.836,0.636-1.711,1.01-2.623,1.12c-0.913,0.11-1.87-0.044-2.87-0.465c-1.192-0.5-2.188-1.258-2.985-2.271
				c-0.798-1.013-1.288-2.059-1.471-3.136c-0.183-1.077-0.146-2.111,0.112-3.102c0.258-0.991,0.779-2.421,1.564-4.29l3.392-8.075
				c1.091-2.596,2.022-4.423,2.798-5.48c0.773-1.058,2.032-1.796,3.775-2.216c1.742-0.42,3.67-0.187,5.782,0.7
				c2.079,0.873,3.625,2.023,4.639,3.449c1.014,1.426,1.482,2.812,1.407,4.155c-0.076,1.344-0.581,3.13-1.517,5.357L158.322,326.975
				z"/>
			<path style="fill:#3C2415;" d="M163.818,317.396l5.252,1.447c3.501,0.964,5.834,1.751,7,2.362
				c1.165,0.611,1.986,1.577,2.463,2.898c0.477,1.321,0.382,3.193-0.285,5.616c-0.609,2.211-1.295,3.622-2.057,4.23
				c-0.762,0.609-1.975,0.766-3.638,0.471c1.369,0.768,2.222,1.525,2.56,2.272c0.338,0.748,0.498,1.393,0.481,1.936
				c-0.017,0.543-0.342,1.962-0.973,4.255l-2.064,7.496l-6.892-1.898l2.602-9.444c0.419-1.521,0.558-2.497,0.417-2.926
				c-0.141-0.429-0.723-0.785-1.745-1.066l-3.529,12.814l-7.419-2.043L163.818,317.396z M169.898,324.303l-1.74,6.319
				c0.834,0.229,1.45,0.277,1.848,0.141c0.398-0.136,0.77-0.83,1.114-2.082l0.43-1.563c0.249-0.901,0.25-1.537,0.004-1.907
				C171.308,324.842,170.756,324.539,169.898,324.303z"/>
			<path style="fill:#3C2415;" d="M194.975,324.155l0.051,29.805l-7.78-1.148l0.364-5.302l-2.723-0.402l-1.231,5.174l-7.871-1.162
				l8.187-28.59L194.975,324.155z M188.174,342.31c0.103-3.36,0.318-7.499,0.647-12.42c-1.6,5.47-2.688,9.481-3.268,12.033
				L188.174,342.31z"/>
			<path style="fill:#3C2415;" d="M199.17,324.716l5.756,0.164c3.716,0.106,6.223,0.348,7.522,0.725c1.3,0.377,2.28,0.964,2.94,1.76
				c0.659,0.796,1.062,1.672,1.205,2.63c0.143,0.957,0.175,2.832,0.095,5.622l-0.294,10.32c-0.076,2.645-0.251,4.41-0.526,5.294
				c-0.275,0.885-0.73,1.57-1.366,2.056c-0.636,0.486-1.413,0.816-2.332,0.99c-0.92,0.174-2.299,0.235-4.139,0.182l-9.702-0.277
				L199.17,324.716z M206.719,329.977l-0.554,19.384c1.108,0.031,1.797-0.17,2.065-0.606c0.269-0.436,0.431-1.636,0.487-3.602
				l0.327-11.448c0.038-1.335,0.02-2.191-0.055-2.57c-0.075-0.378-0.262-0.66-0.562-0.845
				C208.129,330.105,207.559,330.001,206.719,329.977z"/>
			<path style="fill:#3C2415;" d="M235.782,323.719l1.62,19.634c0.184,2.226,0.239,3.796,0.168,4.709
				c-0.071,0.913-0.426,1.874-1.064,2.883c-0.639,1.009-1.523,1.807-2.654,2.393c-1.132,0.587-2.493,0.946-4.084,1.077
				c-1.762,0.145-3.34-0.017-4.735-0.486c-1.396-0.47-2.467-1.142-3.212-2.019c-0.745-0.876-1.221-1.827-1.428-2.851
				c-0.206-1.024-0.446-3.193-0.72-6.508l-1.435-17.384l7.67-0.632l1.817,22.029c0.105,1.282,0.243,2.096,0.412,2.441
				c0.169,0.346,0.467,0.5,0.892,0.465c0.485-0.04,0.782-0.262,0.89-0.667c0.107-0.404,0.101-1.339-0.02-2.803l-1.786-21.648
				L235.782,323.719z"/>
			<path style="fill:#3C2415;" d="M250.356,320.879l10.07,28.053l-7.714,1.535l-1.438-5.116l-2.7,0.538l0.58,5.287l-7.803,1.553
				l-1.904-29.678L250.356,320.879z M250.057,340.266c-1.034-3.199-2.223-7.17-3.567-11.915c0.333,5.689,0.656,9.833,0.969,12.432
				L250.057,340.266z"/>
			<path style="fill:#3C2415;" d="M267.521,315.854l1.725,5.641l-4.369,1.337l6.898,22.547l-7.358,2.251l-6.898-22.547l-4.352,1.332
				l-1.726-5.641L267.521,315.854z"/>
			<path style="fill:#3C2415;" d="M267.847,315.616l11.799-5.045l2.319,5.424l-4.723,2.02l2.197,5.14l4.421-1.891l2.205,5.156
				l-4.421,1.891l2.549,5.96l5.193-2.221l2.32,5.424l-12.27,5.247L267.847,315.616z"/>
		</g>
	</g>
	<polygon style="fill:#D83633;" points="365.267,180.837 368.471,187.331 375.639,188.374 370.452,193.431 371.676,200.57 
		365.267,197.199 358.853,200.57 360.078,193.431 354.892,188.374 362.059,187.331 	"/>
	<polygon style="fill:#D83633;" points="359.064,126.949 362.27,133.445 369.438,134.487 364.252,139.544 365.475,146.683 
		359.064,143.313 352.654,146.683 353.875,139.544 348.69,134.487 355.857,133.445 	"/>
	<polygon style="fill:#D83633;" points="339.915,82.852 343.121,89.346 350.287,90.389 345.103,95.444 346.326,102.584 
		339.915,99.214 333.504,102.584 334.727,95.444 329.54,90.389 336.709,89.346 	"/>
	<polygon style="fill:#D83633;" points="59.935,180.837 56.729,187.331 49.561,188.374 54.747,193.431 53.524,200.57 
		59.935,197.199 66.346,200.57 65.121,193.431 70.307,188.374 63.143,187.331 	"/>
	<polygon style="fill:#D83633;" points="66.137,126.949 62.93,133.447 55.762,134.487 60.949,139.544 59.724,146.683 
		66.137,143.313 72.547,146.683 71.322,139.544 76.51,134.487 69.344,133.447 	"/>
	<polygon style="fill:#D83633;" points="89.861,82.852 86.652,89.348 79.484,90.389 84.672,95.444 83.448,102.584 89.861,99.214 
		96.271,102.584 95.048,95.444 100.234,90.389 93.066,89.348 	"/>
	<g>
		<g>
			<path style="fill:#003863;" d="M154.277,152.284h105.896v61.173c0,0-21.596,11.65-50.38,11.65s-55.517-11.65-55.517-11.65
				V152.284z"/>
			<polygon style="fill:#1E233B;" points="306.094,166.85 208.938,198.035 111.779,166.85 111.779,160.681 210.738,138.063 
				306.094,160.681 			"/>
			<polygon style="fill:#003863;" points="306.094,160.681 208.938,191.866 111.779,160.681 210.738,131.893 			"/>
			<polygon style="fill:#FBB040;" points="289.51,213.457 284.984,213.457 284.984,167.456 289.51,166.004 			"/>
			<polygon style="fill:#FBB040;" points="221.892,161.036 217.094,163.361 284.984,167.456 289.51,166.004 			"/>
			<path style="fill:#FBB040;" d="M298.842,222.15c0,11.57-4.361,22.696-13.215,31.675c4.614-16.709-9.978-20.104-9.978-31.675
				c0-6.983,8.379-13.708,11.598-12.221C293.605,207.686,298.842,214.045,298.842,222.15z"/>
			<path style="fill:#F7941D;" d="M294.941,222.15c0,11.57-2.895,22.696-8.772,31.675c3.063-16.709-6.619-20.104-6.619-31.675
				c0-6.983,5.563-13.708,7.695-12.221C291.467,207.686,294.941,214.045,294.941,222.15z"/>
			<path style="fill:#FBB040;" d="M290.853,222.15c0,11.57-1.357,22.696-4.112,31.675c1.438-16.709-3.105-20.104-3.105-31.675
				c0-6.983,2.607-13.708,3.609-12.221C289.225,207.686,290.853,214.045,290.853,222.15z"/>
			<path style="fill:#1E233B;" d="M221.892,158.992c0,3.181-6.155,5.759-13.748,5.759c-7.593,0-13.746-2.578-13.746-5.759
				c0-3.18,6.153-5.758,13.746-5.758C215.736,153.234,221.892,155.813,221.892,158.992z"/>
			<path style="fill:#003863;" d="M221.892,156.121c0,3.18-6.155,5.759-13.748,5.759c-7.593,0-13.746-2.579-13.746-5.759
				c0-3.182,6.153-5.759,13.746-5.759C215.736,150.362,221.892,152.939,221.892,156.121z"/>
		</g>
		<g>
			<g>
				<g>
					<polygon style="fill:#8F242B;" points="191.664,224.545 174.359,215.821 180.869,202.908 187.142,211.99 198.175,211.633 					
						"/>
				</g>
			</g>
			<path style="fill:#D1D3D4;" d="M233.631,270.614c0,0-24.107-16.101-57.539-32.955c-33.432-16.855-60.715-26.662-60.715-26.662
				s-2.338-7.1,1.826-15.359c4.164-8.258,11.266-10.6,11.266-10.6s30.004,20.061,57.141,33.742
				c27.139,13.683,61.109,25.875,61.109,25.875s4.123,4.217-1.562,15.492C239.473,271.422,233.631,270.614,233.631,270.614z"/>
			<path style="fill:#E6E7E8;stroke:#D1D3D4;stroke-miterlimit:10;" d="M124.094,196.975c0,0-3.439,6.817-0.116,8.054
				c3.323,1.237,8.276-15.439,4.478-17.363c-2.092-1.063-8.635,5.998-10.496,11.04c-2.031,5.497-1.557,10.424-0.115,11.15
				c2.391,1.205,6.857-2.71,6.857-2.71s43.238,20.703,57.836,27.843c14.595,7.14,56.273,31.441,56.273,31.441l0.968-1.923
				c0,0-38.884-22.016-55.228-30.475c-16.343-8.458-58.928-29.615-58.928-29.615"/>
			<g>
				<g>
					<path style="fill:#BE1E2D;" d="M185.922,243.272l-19.404-9.783c0,0,4.707-1.993,7.75-8.029
						c3.045-6.037,2.363-12.028,2.363-12.028l19.404,9.783c0,0,0.953,5.45-2.439,12.177
						C190.203,242.118,185.922,243.272,185.922,243.272z"/>
				</g>
			</g>
		</g>
	</g>
</g>
</svg>
